# xmcd
#
# Track frame offsets:
#	150
#	20375
#	39782
#	60127
#	78402
#
# Disc length: 1628 seconds
#
# Revision: 1
# Processed by: cddbd v1.5.1PL0 Copyright (c) Steve Scherf et al.
# Submitted via: EasyCDDAExtractor 5.1.0
#
DISCID=27065a05
DTITLE=ANASTACIA - Heavy on my heart MCD
DYEAR=2005
DGENRE=Blues
TTITLE0=Heavy on my heart
TTITLE1=Underground army
TTITLE2=Trop lourd dans mon coeur
TTITLE3=Special thanks
TTITLE4=Heavy on my heart video
EXTD=
EXTT0=
EXTT1=
EXTT2=
EXTT3=
EXTT4=
PLAYORDER=
